<svg width="11" height="27" viewBox="0 0 11 27" fill="none" xmlns="http://www.w3.org/2000/svg">
<path d="M7.99614 27H2.98519C2.93286 26.9998 2.8811 26.9896 2.83289 26.97C2.78469 26.9503 2.74101 26.9217 2.70438 26.8857C2.63132 26.8148 2.59013 26.719 2.58969 26.6191V20.0988C2.09632 20.0071 1.63237 19.8046 1.23551 19.5078C0.838646 19.211 0.520062 18.8282 0.305619 18.3906C0.0911754 17.953 -0.0130819 17.4729 0.00131142 16.9892C0.0157048 16.5055 0.148344 16.0319 0.388458 15.6068C0.628572 15.1818 0.969394 14.8172 1.38325 14.5428C1.79711 14.2683 2.27234 14.0918 2.77036 14.0274C3.26838 13.963 3.77515 14.0126 4.24952 14.1722C4.7239 14.3318 5.15251 14.5968 5.50055 14.9458C5.84917 14.5966 6.27848 14.3315 6.75356 14.1722C7.22864 14.0129 7.73606 13.9639 8.23453 14.0291C8.73301 14.0943 9.20846 14.2719 9.62219 14.5475C10.0359 14.8231 10.3763 15.1888 10.6155 15.6149C10.8547 16.0411 10.9861 16.5156 10.999 16.9999C11.0118 17.4842 10.9057 17.9645 10.6894 18.4019C10.4731 18.8392 10.1526 19.2212 9.75397 19.5167C9.35538 19.8123 8.88996 20.013 8.39559 20.1026V26.6191C8.3956 26.6695 8.38524 26.7193 8.36512 26.7658C8.34499 26.8122 8.31551 26.8544 8.27836 26.8898C8.24122 26.9252 8.19715 26.9532 8.14871 26.9721C8.10027 26.991 8.04841 27.0005 7.99614 27ZM3.38068 26.2383H7.60065V19.7865C7.6004 19.69 7.63825 19.5969 7.70653 19.5262C7.77481 19.4555 7.86844 19.4124 7.96846 19.4057C8.37379 19.3777 8.76516 19.2513 9.106 19.0382C9.44685 18.8251 9.72606 18.5323 9.91756 18.1872C10.1091 17.842 10.2066 17.4558 10.2011 17.0645C10.1955 16.6732 10.0871 16.2896 9.88595 15.9496C9.68477 15.6096 9.3974 15.3242 9.05066 15.1202C8.70392 14.9161 8.30912 14.8 7.90315 14.7826C7.49718 14.7653 7.09326 14.8473 6.72913 15.0211C6.365 15.1948 6.05253 15.4546 5.82091 15.7761C5.78456 15.8266 5.73609 15.8678 5.67962 15.8963C5.62315 15.9248 5.56036 15.9398 5.4966 15.9399C5.43284 15.9398 5.37004 15.9248 5.31358 15.8963C5.25711 15.8678 5.20863 15.8266 5.17229 15.7761C4.94072 15.4548 4.62839 15.1951 4.26445 15.0214C3.90051 14.8478 3.49681 14.7657 3.09102 14.7829C2.68523 14.8001 2.29058 14.916 1.94389 15.1198C1.59719 15.3236 1.30976 15.6086 1.10839 15.9483C0.907031 16.288 0.798306 16.6713 0.792363 17.0624C0.786421 17.4535 0.883454 17.8397 1.07441 18.1849C1.26537 18.5301 1.54402 18.8231 1.88437 19.0366C2.22473 19.2501 2.61569 19.3771 3.02078 19.4057C3.1208 19.4124 3.21443 19.4555 3.28271 19.5262C3.35099 19.5969 3.38884 19.69 3.38859 19.7865L3.38068 26.2383Z" fill="white"/>
<path d="M7.83464 13C7.40177 12.9985 6.97363 12.9138 6.57576 12.7509C6.17789 12.588 5.81842 12.3503 5.51878 12.0518C5.16529 12.3958 4.73218 12.6555 4.25434 12.8102C3.7765 12.9649 3.2673 13.0102 2.76778 12.9424C2.26826 12.8746 1.7924 12.6957 1.37854 12.42C0.964691 12.1443 0.624423 11.7796 0.385166 11.3553C0.145909 10.9309 0.0143566 10.4588 0.00111035 9.97701C-0.0121359 9.4952 0.0932952 9.01715 0.308906 8.58139C0.524517 8.14564 0.844276 7.76437 1.24241 7.46832C1.64055 7.17227 2.10592 6.96971 2.60103 6.87698V0.380785C2.60103 0.279795 2.64302 0.18294 2.71777 0.111529C2.79252 0.0401183 2.89391 0 2.99963 0H8.04988C8.1556 0 8.25699 0.0401183 8.33174 0.111529C8.40649 0.18294 8.44848 0.279795 8.44848 0.380785V6.89602C9.2219 7.05373 9.90768 7.47745 10.3754 8.08662C10.8432 8.69579 11.0603 9.44793 10.9855 10.2C10.9107 10.9521 10.5492 11.6518 9.96978 12.1659C9.39031 12.68 8.63328 12.9728 7.84261 12.9886L7.83464 13ZM5.51878 11.0656C5.58269 11.0653 5.64575 11.0796 5.70263 11.1075C5.75952 11.1353 5.80856 11.1758 5.84563 11.2255C6.07806 11.5492 6.3927 11.8112 6.76007 11.9871C7.12743 12.1629 7.53551 12.2467 7.94605 12.2308C8.3566 12.2148 8.75619 12.0996 9.10739 11.8958C9.45859 11.6921 9.7499 11.4065 9.95405 11.0658C10.1582 10.7252 10.2685 10.3406 10.2746 9.94813C10.2807 9.55565 10.1824 9.16811 9.98891 8.82182C9.79545 8.47553 9.51313 8.18182 9.16842 7.9682C8.8237 7.75459 8.42787 7.62806 8.018 7.60047C7.91719 7.59371 7.82283 7.55063 7.75402 7.47994C7.6852 7.40924 7.64705 7.31622 7.6473 7.21968V0.746339H3.39823V7.21968C3.39847 7.31622 3.36033 7.40924 3.29151 7.47994C3.22269 7.55063 3.12833 7.59371 3.02753 7.60047C2.56312 7.63077 2.11767 7.7882 1.74443 8.05393C1.3712 8.31967 1.08597 8.68246 0.92285 9.09895C0.759728 9.51544 0.725614 9.96799 0.824587 10.4025C0.92356 10.837 1.15143 11.2351 1.48096 11.5492C1.705 11.7655 1.97203 11.9369 2.26636 12.0533C2.56069 12.1697 2.87639 12.2288 3.19494 12.227C3.58718 12.2266 3.97345 12.1353 4.32059 11.9608C4.66774 11.7864 4.96537 11.5341 5.18794 11.2255C5.22539 11.1753 5.27508 11.1344 5.33271 11.1066C5.39034 11.0787 5.45419 11.0647 5.51878 11.0656Z" fill="white"/>
</svg>
