<svg width="35" height="36" viewBox="0 0 35 36" fill="none" xmlns="http://www.w3.org/2000/svg">
<ellipse cx="17.5" cy="18" rx="17.5" ry="18" fill="url(#paint0_linear_2042_4590)"/>
<g clip-path="url(#clip0_2042_4590)">
<path d="M17.7224 10.0113C12.9563 10.2612 9.81013 14.012 10.0089 18.7417C10.0957 20.812 10.9251 22.5934 11.1216 24.5582C11.1719 25.0672 11.0256 25.6954 11.6106 25.9177C12.3303 26.1906 13.4338 25.732 14.037 25.3125C14.2427 25.1726 14.4391 25.0099 14.5899 24.8081C15.2137 25.2231 15.8055 25.6243 16.548 25.8031C19.8176 26.5895 23.4002 24.7898 24.9927 21.8987C27.9858 16.4674 23.9394 9.68573 17.7224 10.0113ZM15.8717 21.3462C15.6135 21.5479 15.3645 21.8231 15.0789 21.9813C14.6653 22.2036 14.5374 21.9721 14.382 21.6053C13.8931 20.4383 13.8337 18.4506 14.1193 17.2286C14.5031 15.5664 15.7849 14.1037 17.5465 13.9478C19.3286 13.7896 20.9828 14.6975 21.73 16.3367C23.3842 19.9843 19.1504 23.5861 15.8717 21.3485V21.3462Z" fill="white"/>
</g>
<defs>
<linearGradient id="paint0_linear_2042_4590" x1="17.5" y1="-4.56969e-07" x2="9.64468" y2="28.5562" gradientUnits="userSpaceOnUse">
<stop stop-color="#2262B7"/>
<stop offset="1" stop-color="#5088EA"/>
</linearGradient>
<clipPath id="clip0_2042_4590">
<rect width="16" height="16" fill="white" transform="translate(10 10)"/>
</clipPath>
</defs>
</svg>
